<svg xmlns="http://www.w3.org/2000/svg" xmlns:xlink="http://www.w3.org/1999/xlink" viewBox="0 0 184 184">
  <defs>
    <style>
      .cls-1 {
        fill: #262626;
      }

      .cls-2 {
        fill: url(#linear-gradient);
      }

      .cls-3 {
        filter: url(#object-group-solid);
      }
    </style>
    <linearGradient id="linear-gradient" x1="3.057" y1="-1.991" x2="-0.34" y2="1.577" gradientUnits="objectBoundingBox">
      <stop offset="0" stop-color="#93f9b9"/>
      <stop offset="1" stop-color="#1d976c"/>
    </linearGradient>
    <filter id="object-group-solid" x="33" y="43" width="117.275" height="104.866" filterUnits="userSpaceOnUse">
      <feOffset dy="3" input="SourceAlpha"/>
      <feGaussianBlur stdDeviation="3" result="blur"/>
      <feFlood flood-opacity="0.161"/>
      <feComposite operator="in" in2="blur"/>
      <feComposite in="SourceGraphic"/>
    </filter>
  </defs>
  <g id="Group_24" data-name="Group 24" transform="translate(-246 -2556)">
    <circle id="Ellipse_2" data-name="Ellipse 2" class="cls-1" cx="92" cy="92" r="92" transform="translate(246 2556)"/>
    <g class="cls-3" transform="matrix(1, 0, 0, 1, 246, 2556)">
      <path id="object-group-solid-2" data-name="object-group-solid" class="cls-2" d="M93.071,50.614v-6.2h3.878a2.327,2.327,0,0,0,2.327-2.327V34.327A2.327,2.327,0,0,0,96.949,32H89.193a2.327,2.327,0,0,0-2.327,2.327V38.2H12.409V34.327A2.327,2.327,0,0,0,10.083,32H2.327A2.327,2.327,0,0,0,0,34.327v7.756a2.327,2.327,0,0,0,2.327,2.327H6.2v62.047H2.327A2.327,2.327,0,0,0,0,108.783v7.756a2.327,2.327,0,0,0,2.327,2.327h7.756a2.327,2.327,0,0,0,2.327-2.327v-3.878H86.866v3.878a2.327,2.327,0,0,0,2.327,2.327h7.756a2.327,2.327,0,0,0,2.327-2.327v-7.756a2.327,2.327,0,0,0-2.327-2.327H93.071Zm-74.457,28.7V52.941a2.327,2.327,0,0,1,2.327-2.327H53.516a2.327,2.327,0,0,1,2.327,2.327v26.37a2.327,2.327,0,0,1-2.327,2.327H20.941A2.327,2.327,0,0,1,18.614,79.311ZM80.661,97.925a2.327,2.327,0,0,1-2.327,2.327H45.76a2.327,2.327,0,0,1-2.327-2.327V87.842H57.394a4.654,4.654,0,0,0,4.654-4.654V69.228H78.335a2.327,2.327,0,0,1,2.327,2.327Z" transform="translate(42 17)"/>
    </g>
  </g>
</svg>
