<svg xmlns="http://www.w3.org/2000/svg" xmlns:xlink="http://www.w3.org/1999/xlink" viewBox="0 0 184 184">
  <defs>
    <style>
      .cls-1 {
        fill: #262626;
      }

      .cls-2 {
        fill: url(#linear-gradient);
      }

      .cls-3 {
        filter: url(#paint-brush-solid);
      }
    </style>
    <linearGradient id="linear-gradient" x1="1.57" y1="-0.606" x2="-0.08" y2="1.142" gradientUnits="objectBoundingBox">
      <stop offset="0" stop-color="#93f9b9"/>
      <stop offset="1" stop-color="#1d976c"/>
    </linearGradient>
    <filter id="paint-brush-solid" x="32" y="35" width="119.063" height="119.061" filterUnits="userSpaceOnUse">
      <feOffset dy="3" input="SourceAlpha"/>
      <feGaussianBlur stdDeviation="3" result="blur"/>
      <feFlood flood-opacity="0.161"/>
      <feComposite operator="in" in2="blur"/>
      <feComposite in="SourceGraphic"/>
    </filter>
  </defs>
  <g id="Group_24" data-name="Group 24" transform="translate(-246 -2556)">
    <circle id="Ellipse_2" data-name="Ellipse 2" class="cls-1" cx="92" cy="92" r="92" transform="translate(246 2556)"/>
    <g class="cls-3" transform="matrix(1, 0, 0, 1, 246, 2556)">
      <path id="paint-brush-solid-2" data-name="paint-brush-solid" class="cls-2" d="M32.959,61.059c-7.919.509-15.106,3.525-19.184,14.271A3.012,3.012,0,0,1,10.9,77.3C8.7,77.3,1.922,71.838-.01,70.519c0,16.255,7.489,30.541,25.267,30.541,14.974,0,25.265-8.639,25.265-23.724a17.1,17.1,0,0,0-.191-1.8L32.959,61.059ZM90.372,0a12.054,12.054,0,0,0-7.937,3.247C42.088,39.289,37.89,40.136,37.89,50.745a18.274,18.274,0,0,0,1.723,7.639l12.6,10.5a18.162,18.162,0,0,0,4.419.6c12.26,0,19.365-8.975,41.68-50.621,1.457-2.832,2.744-5.892,2.744-9.078C101.053,4.074,95.921,0,90.372,0Z" transform="translate(41.01 41)"/>
    </g>
  </g>
</svg>
