<svg xmlns="http://www.w3.org/2000/svg" xmlns:xlink="http://www.w3.org/1999/xlink" viewBox="0 0 515.733 726.874"><defs><style>.a{fill:#262626;}.b{fill:url(#a);}.c{fill:#93f9b9;opacity:0.04;}</style><linearGradient id="a" x1="2.385" y1="-0.379" x2="0.16" y2="0.691" gradientUnits="objectBoundingBox"><stop offset="0" stop-color="#93f9b9"/><stop offset="1" stop-color="#1d976c"/></linearGradient></defs><g transform="translate(0.5 -6887.337)"><path class="a" d="M401.5,858.21h0V132.184l.563-.847h.007a235.872,235.872,0,0,1,26.036,7.479c9.378,3.193,18.955,6.92,28.466,11.079,11.889,5.2,23.708,11.089,35.128,17.509a388.051,388.051,0,0,1,79.343,58.919,377.184,377.184,0,0,1,38.764,43.716c6.3,8.329,12.344,17.052,17.963,25.926,5.874,9.278,11.447,18.978,16.563,28.831,57.092,109.951,99.194,113.442,152.5,117.861,12.536,1.039,25.5,2.114,39.438,4.646a208.09,208.09,0,0,1,44.85,13.354c21.831,9.29,33.887,24.971,35.833,46.607,1.465,16.286-2.813,35.711-12.717,57.734a271.549,271.549,0,0,1-17.325,32.066,397.761,397.761,0,0,1-22.842,32.616c-8.267,10.68-17.356,21.439-27.014,31.977-9.48,10.344-19.52,20.488-29.84,30.151-10.266,9.612-20.8,18.742-31.321,27.138-10.608,8.468-21.191,16.185-31.456,22.936a370.9,370.9,0,0,1-40.169,22.573c-14.043,6.886-29.9,13.84-47.115,20.667-29.775,11.806-64.334,23.527-102.716,34.84-67.9,20.01-129.571,33.415-152.936,38.249Z" transform="translate(-402 6756)"/><path class="b" d="M401.5,827.659v-695.5l.5-.818h.006a196.874,196.874,0,0,1,23.162,7.226c8.342,3.085,16.861,6.686,25.323,10.7a340.752,340.752,0,0,1,31.25,16.917,348.816,348.816,0,0,1,70.583,56.928,356.688,356.688,0,0,1,34.485,42.239c5.606,8.049,10.982,16.477,15.98,25.051,5.225,8.964,10.183,18.336,14.734,27.857,50.788,106.238,88.242,109.611,135.66,113.881,11.152,1,22.683,2.043,35.084,4.489a174.27,174.27,0,0,1,39.9,12.9,149.153,149.153,0,0,1,29.373,17.919,130,130,0,0,1,23.733,23.953A100.812,100.812,0,0,1,896.6,520.052a82.221,82.221,0,0,1,4.153,32c-.932,13.148-5.118,26.228-12.442,38.878A127.715,127.715,0,0,1,874,610.724a177.168,177.168,0,0,1-20.381,19.7c-34,28.209-85.32,52.735-152.541,72.9-90.379,27.107-164.391,53.737-219.98,79.15-45.317,20.717-68.3,36.006-79.6,45.184Z" transform="translate(-402 6784)"/><path class="c" d="M401.5,492.222V131.761l.259-.424h0a102.036,102.036,0,0,1,12,3.745c4.323,1.6,8.739,3.465,13.124,5.548a176.607,176.607,0,0,1,16.2,8.768,180.781,180.781,0,0,1,36.581,29.5,184.862,184.862,0,0,1,17.872,21.891c2.905,4.171,5.692,8.54,8.282,12.983,2.708,4.646,5.277,9.5,7.636,14.438,26.322,55.06,45.733,56.808,70.309,59.021a169.842,169.842,0,0,1,18.183,2.327,90.32,90.32,0,0,1,20.678,6.687,77.3,77.3,0,0,1,15.223,9.287,67.377,67.377,0,0,1,12.3,12.414,52.249,52.249,0,0,1,7.943,14.847,42.614,42.614,0,0,1,2.152,16.583A46.712,46.712,0,0,1,653.8,369.53a66.191,66.191,0,0,1-7.415,10.26A91.824,91.824,0,0,1,635.821,390c-17.62,14.62-44.219,27.331-79.058,37.781-46.841,14.049-85.2,27.851-114.01,41.021-23.487,10.737-35.4,18.661-41.253,23.418Z" transform="translate(-402 6951.437)"/></g></svg>