<svg xmlns="http://www.w3.org/2000/svg" xmlns:xlink="http://www.w3.org/1999/xlink" viewBox="0 0 1920.111 1065.363"><defs><style>.a{fill:#262626;}.b{fill:url(#a);}.c{fill:#93f9b9;opacity:0.21;}</style><linearGradient id="a" x1="0.438" y1="0.635" x2="0.772" y2="0.264" gradientUnits="objectBoundingBox"><stop offset="0" stop-color="#93f9b9"/><stop offset="0.042" stop-color="#91f7b8"/><stop offset="1" stop-color="#1d976c"/></linearGradient></defs><g transform="translate(0 0.003)"><path class="a" d="M-10,25V279.086L362.715,25Z" transform="translate(10 -25)"/><g transform="translate(-421)"><path class="a" d="M4452.777,69.619s185.145,188.792,354.944,214.242,271.5,83.293,284.217,230.211,161.8,235.16,263.506,285.74,424.666,124.839,424.666,314.706S5779.586,69,5779.586,69Z" transform="translate(-3439 -68.999)"/><path class="b" d="M4478.491,85.077S4626.378,251,4796.048,276.451s271.3,83.293,284,230.211,161.676,235.16,263.3,285.74S5735,839.718,5735,1013.654,5734.65,85,5734.65,85H4571.23Z" transform="translate(-3393.885 -84.999)"/><path class="c" d="M4453.477,159s183.487,57.729,353.514,83.179,271.867,83.293,284.6,230.211,162.016,235.16,263.859,285.74S5496.408,799.4,5496.408,944.5s-.018-785.492-.023-785.5S4563.095,159,4453.477,159Z" transform="translate(-3155.408 -159)"/></g></g></svg>