<svg xmlns="http://www.w3.org/2000/svg" viewBox="0 0 47.388 47.387">
  <defs>
    <style>
      .cls-1 {
        fill: #1d976c;
      }
    </style>
  </defs>
  <g id="logo" transform="translate(-125.811 -12.667)">
    <path id="Path_2" data-name="Path 2" class="cls-1" d="M33.5,12.667a23.694,23.694,0,0,0-9.129,45.558l1.779-2.864a20.339,20.339,0,1,1,7.351,1.4c-.034,0-.066-.006-.1-.006l17.311-28.1H38.762l-3.385,5.461h0l-1.14,1.839-.107.168-2.231,3.6-.008,0-1.724,2.776L23.712,32.079l3.873.005,1.158,1.857,4.178.008L29.5,28.654l-11.956,0,10.606,17.1-.006.008,2.019,3.261,2.027-3.269,0,0,1.939-3.121,0,.008,6.546-10.552,3.871,0L28.492,57.941l.081.033-.834,1.344A23.683,23.683,0,1,0,33.5,12.667Z" transform="translate(116)"/>
  </g>
</svg>
