<svg xmlns="http://www.w3.org/2000/svg" xmlns:xlink="http://www.w3.org/1999/xlink" viewBox="0 0 1920 1321.219">
  <defs>
    <style>
      .cls-1 {
        fill: #262626;
      }

      .cls-2 {
        fill: url(#linear-gradient);
      }

      .cls-3 {
        fill: #93f9b9;
        opacity: 0.04;
      }

      .cls-4 {
        fill: none;
      }
    </style>
    <linearGradient id="linear-gradient" x1="3.78" y1="-0.074" x2="-0.024" y2="0.534" gradientUnits="objectBoundingBox">
      <stop offset="0" stop-color="#93f9b9"/>
      <stop offset="1" stop-color="#1d976c"/>
    </linearGradient>
  </defs>
  <g id="Group_29" data-name="Group 29" transform="translate(541.659 -2265.443)">
    <path id="Subtraction_16" data-name="Subtraction 16" class="cls-1" d="M91.8,1320.889a178.523,178.523,0,0,1-46.013-6.008,181.17,181.17,0,0,1-23.021-7.848A190.659,190.659,0,0,1,0,1295.657V2.432C.287.839.439.008.44,0,2.205,1.336,6.491,7.525,12.978,16.892l0,0C21.949,29.843,35.5,49.41,52.855,71.233c9.532,11.987,19.253,23.437,28.892,34.034,11.317,12.441,22.876,24.1,34.354,34.642,60.65,55.72,122.7,84.366,184.433,85.142a194.61,194.61,0,0,1,30.236,2.6,136.7,136.7,0,0,1,24.94,6.634,110.432,110.432,0,0,1,20.431,10.152A108.106,108.106,0,0,1,392.849,257.6a127.593,127.593,0,0,1,13.77,15.647,183.615,183.615,0,0,1,11.619,17.624c7.2,12.3,13.386,25.329,19.93,39.128,12.018,25.34,24.444,51.542,44.163,74.407a167.862,167.862,0,0,0,16.256,16.44A162.606,162.606,0,0,0,518.2,435.588a177,177,0,0,0,23.6,12.637,213.4,213.4,0,0,0,28.231,10.113,374.913,374.913,0,0,1,61.7,23.292c19.279,9.381,36.27,19.991,50.5,31.536,14.773,11.985,26.327,24.792,34.341,38.064,8.448,13.99,12.9,28.415,13.227,42.875a78.716,78.716,0,0,1-2.5,21.393,94.5,94.5,0,0,1-8.818,21.9,131.285,131.285,0,0,1-15.652,22.229A196.474,196.474,0,0,1,679.823,682c-38.134,31.795-97.329,61.2-175.94,87.387-105.58,35.176-145.066,93.987-173.9,136.929-3.083,4.592-6,8.93-8.885,13.089a210.438,210.438,0,0,1-27.031,31.7c-8.87,8.559-17.479,15.485-25.074,21.6l0,0c-8.63,6.943-16.082,12.94-21.656,19.438a46.01,46.01,0,0,0-6.83,10.279,37.006,37.006,0,0,0-3.371,12.027,52.242,52.242,0,0,0,.683,14.808,104.416,104.416,0,0,0,5.331,18.62c5.266,14,14.093,31.27,26.985,52.808a103.308,103.308,0,0,1,11.877,28.961,105.5,105.5,0,0,1,2.693,30.141,123.478,123.478,0,0,1-5.563,30.3,151.6,151.6,0,0,1-12.893,29.436,178.506,178.506,0,0,1-13.586,20.46,197.956,197.956,0,0,1-16.668,19.042,213.443,213.443,0,0,1-41.114,32.214,210.374,210.374,0,0,1-49.042,21.7A190.889,190.889,0,0,1,91.8,1320.889Z" transform="translate(1378.34 3586.332) rotate(180)"/>
    <path id="Subtraction_15" data-name="Subtraction 15" class="cls-2" d="M70.273,1190.464c-24.056,0-47.7-6.653-70.273-19.774V2.2C.262.744.4,0,.4,0c1.515,1.148,5.3,6.1,11.018,13.585C45.551,58.258,149.425,194.205,281.289,195.863a187.992,187.992,0,0,1,27.4,2.232,130.8,130.8,0,0,1,22.616,5.653,103.366,103.366,0,0,1,18.545,8.642,97.946,97.946,0,0,1,15.186,11.2c18.325,16.445,29.534,38.443,41.4,61.732,10.983,21.555,22.34,43.841,40.243,63.466a150.145,150.145,0,0,0,32.486,26.918A168.1,168.1,0,0,0,500.48,386.76a204.859,204.859,0,0,0,25.451,8.994,259.724,259.724,0,0,1,50.146,19.778A185.65,185.65,0,0,1,615.543,442.9c11.222,10.351,19.986,21.583,26.048,33.381a86.631,86.631,0,0,1,9.891,37.823c.344,15.073-3.459,30.33-11.3,45.348a138.483,138.483,0,0,1-15.585,23.328,198.952,198.952,0,0,1-22.834,23.4,291.356,291.356,0,0,1-30.554,23.208,423.734,423.734,0,0,1-38.744,22.743c-14.507,7.565-30.456,14.969-47.4,22.008-17.5,7.27-36.526,14.336-56.535,21-105.035,34.994-138.542,73.595-166.18,113.37A186.242,186.242,0,0,1,237.2,837.666c-8.391,7.956-16.709,14.528-24.048,20.327-8.353,6.6-15.567,12.3-21.172,18.529-6.148,6.833-9.611,13.575-10.9,21.217a47.02,47.02,0,0,0-.129,13.835,86.315,86.315,0,0,0,4.2,17.169c4.448,12.971,12.212,28.635,23.735,47.887a106.465,106.465,0,0,1,12.474,31.2,117.989,117.989,0,0,1,2.588,33.114,140.768,140.768,0,0,1-6.227,33.4,164.275,164.275,0,0,1-13.97,32.062,177.321,177.321,0,0,1-24.218,33.067,171.372,171.372,0,0,1-31.4,26.679,151.632,151.632,0,0,1-36.956,17.821,133.846,133.846,0,0,1-40.889,6.494h-.021Z" transform="translate(1378.34 3520.589) rotate(180)"/>
    <path id="Subtraction_17" data-name="Subtraction 17" class="cls-3" d="M47.313,801.5c-16.2,0-32.115-4.479-47.313-13.313V1.481C.177.5.268,0,.268,0c1.02.773,3.566,4.1,7.418,9.146,22.982,30.077,92.917,121.606,181.7,122.723a126.573,126.573,0,0,1,18.447,1.5,88.064,88.064,0,0,1,15.226,3.806A69.591,69.591,0,0,1,235.542,143a65.943,65.943,0,0,1,10.224,7.54c12.338,11.072,19.884,25.882,27.874,41.562,7.395,14.512,15.041,29.517,27.094,42.73a101.09,101.09,0,0,0,21.872,18.123,113.185,113.185,0,0,0,14.351,7.443,137.926,137.926,0,0,0,17.136,6.055,174.868,174.868,0,0,1,33.762,13.316,124.991,124.991,0,0,1,26.571,18.425,81.661,81.661,0,0,1,17.537,22.475,58.327,58.327,0,0,1,6.659,25.465c.231,10.148-2.329,20.421-7.61,30.532a93.24,93.24,0,0,1-10.493,15.706,133.955,133.955,0,0,1-15.373,15.757,196.162,196.162,0,0,1-20.571,15.626,285.285,285.285,0,0,1-26.085,15.312c-9.767,5.093-20.5,10.078-31.916,14.817-11.785,4.894-24.592,9.652-38.063,14.14-70.717,23.56-93.276,49.549-111.884,76.329A125.391,125.391,0,0,1,159.7,563.976c-5.649,5.357-11.25,9.781-16.191,13.686-5.624,4.443-10.48,8.28-14.255,12.475-4.14,4.6-6.471,9.14-7.337,14.285a31.657,31.657,0,0,0-.087,9.315,58.109,58.109,0,0,0,2.828,11.559c2.995,8.733,8.222,19.279,15.98,32.241a71.68,71.68,0,0,1,8.4,21,79.44,79.44,0,0,1,1.742,22.294,94.774,94.774,0,0,1-4.192,22.489,110.6,110.6,0,0,1-9.406,21.586,119.382,119.382,0,0,1-16.305,22.263,115.383,115.383,0,0,1-21.14,17.962,102.089,102.089,0,0,1-24.881,12A90.112,90.112,0,0,1,47.326,801.5h-.014Z" transform="translate(1378.34 3343.973) rotate(180)"/>
    <rect id="Rectangle_47" data-name="Rectangle 47" class="cls-4" width="1920" height="1300" transform="translate(-541.659 2286.661)"/>
  </g>
</svg>
